<?xml version="1.0" encoding="iso-8859-1" ?>
<svg version="1.1" xmlns="http://www.w3.org/2000/svg" xmlns:xlink="http://www.w3.org/1999/xlink" 
    viewBox="0 0 1600 1200" width="1600" height="1200">
    
    
    <!-- ITEM 0 -->
    <g>
        <defs>
            <clipPath id="clip-path-id-viewbox-item-0">
                <rect x="0.0" y="0.0" width="124.95" height="124.95"/>
            </clipPath>
        </defs>
        <g transform="translate(229.0 134.0) rotate(0.0 269.5 269.5) scale(4.313725490196078 4.313725490196078)">
            <g clip-path="url(#clip-path-id-viewbox-item-0)" transform="translate(-0.0 -0.0)">
                <g id="Мыло-i0"><path d="M92.22,125H32.74A32.77,32.77,0,0,1,0,92.22V32.73A32.77,32.77,0,0,1,32.74,0H92.22A32.76,32.76,0,0,1,125,32.73V92.22A32.76,32.76,0,0,1,92.22,125ZM32.74,6A26.76,26.76,0,0,0,6,32.73V92.22A26.76,26.76,0,0,0,32.74,119H92.22A26.76,26.76,0,0,0,119,92.22V32.73A26.76,26.76,0,0,0,92.22,6Z" style="fill:#b47b00;"></path></g>
            </g>
        </g>
    </g>
    
    <!-- ITEM 1 -->
    <g>
        <defs>
            <clipPath id="clip-path-id-viewbox-item-1">
                <rect x="0.0" y="0.0" width="112.039" height="102.449"/>
            </clipPath>
        </defs>
        <g transform="translate(306.0 479.0) rotate(0.0 38.5 35.0) scale(0.6872606860111211 0.6832667961619928)">
            <g clip-path="url(#clip-path-id-viewbox-item-1)" transform="translate(-0.0 -0.0)">
                <title>Star_Blue</title><polygon id="bc4b5942-8fc3-4b7e-9f3f-848b653c5f17-i1" data-name="Star_Blue" points="3.602 39.475 45.716 39.3 55.999 1.363 66.326 39.289 108.437 39.419 75.706 61.888 88.449 101.05 56.038 77.011 23.657 101.085 36.357 61.906 3.602 39.475" fill="#ffdb52"></polygon>
            </g>
        </g>
    </g>
    
    <!-- ITEM 2 -->
    <g>
        <defs>
            <clipPath id="clip-path-id-viewbox-item-2">
                <rect x="0.0" y="0.0" width="112.039" height="102.449"/>
            </clipPath>
        </defs>
        <g transform="translate(465.0 478.0) rotate(0.0 41.5 38.0) scale(0.7408134667392604 0.7418325215473065)">
            <g clip-path="url(#clip-path-id-viewbox-item-2)" transform="translate(-0.0 -0.0)">
                <title>Star_Beige</title><polygon id="e31099bb-6aae-459a-91aa-3838c661596d-i2" data-name="Star_Beige" points="2.92 39.475 45.034 39.3 55.317 1.363 65.645 39.289 107.756 39.419 75.024 61.888 87.767 101.05 55.356 77.011 22.975 101.085 35.676 61.906 2.92 39.475" fill="#ffdb52"></polygon>
            </g>
        </g>
    </g>
    
    <!-- ITEM 3 -->
    <g>
        <defs>
            <clipPath id="clip-path-id-viewbox-item-3">
                <rect x="0.0" y="0.0" width="388.48" height="585.081"/>
            </clipPath>
        </defs>
        <g transform="translate(722.0 184.0) rotate(0.0 315.5 475.0) scale(1.6242792421746293 1.6237068029896715)">
            <g clip-path="url(#clip-path-id-viewbox-item-3)" transform="translate(-0.0 -0.0)">
                
<g>
	<path style="fill:#ebaa17;" d="M277.35,70.573c-4.236-1.622-8.183,7.67-8.183,7.67l-4.04-36.452l-51.057,2.369l-2.416,34.863   c-8.176-7.338-11.531,4.545-11.797,13.377c-0.365,8.82,4.535,19.085,9.721,19.513c1.915,0.156,3.297-0.837,4.278-2.135   c-2.329,10.791-3.513,30.469,15.333,39.558c5.529,9.561,12.345,13.013,19.754,12.581c7.372-0.429,12.456-7.819,15.834-16.187   c15.165-12.478,9.713-33.091,6.718-41.271c7.495,6.633,10.639-5.23,11.875-15.427C284.611,78.808,281.585,72.195,277.35,70.573z    M247.64,69.689c0.084-0.695,0.244-1.179,0.939-1.095c0.695,0.084,0.647,0.481,0.737,1.399c0.174,6.871,0.524,24.743,5.418,30.071   c0.797,0.902,1.654,1.309,2.659,1.33c0.198,0.024,0.608-0.027,1.077-0.575c4.028-4.145,4.021-23.185,3.634-30.787   c-0.015-0.707,0.006-1.711,0.713-1.727c0.707-0.015,1.191,0.145,1.269,1.161c0.358,2.864,1.604,28.299-3.82,33.987   c-0.815,0.909-1.868,1.285-2.984,1.351c-0.198-0.024-0.397-0.048-0.596-0.072c-1.39-0.168-2.719-0.833-3.877-2.082   C246.233,95.407,247.619,70.694,247.64,69.689z M242.183,103.881l0.489-15.655c-0.015-0.707,0.157-1.291,0.852-1.206   c0.496,0.06,0.659,0.382,0.574,1.077l0.549,14.572c1.787,0.217,5.821,1.008,7.105,2.877c0.511,0.767,0.974,1.931,0.46,3.682   c-1.742,5.228-8.225,6.355-8.436,6.431c-0.099-0.012-0.31,0.063-0.409,0.051c-0.496-0.06-0.957-0.418-1.095-0.938   c-0.114-0.719,0.268-1.378,0.987-1.492c0,0,4.35-0.983,5.626-4.858c0.295-0.77,0.045-1.203-0.129-1.426   c-0.86-1.212-3.814-1.772-5.415-1.866C242.634,105.145,242.098,104.576,242.183,103.881z M222.689,71.095   c0.184-0.683,0.43-1.056,1.125-0.972c0.806-0.003,0.746,0.494,0.824,1.51c0.069,1.922-0.327,22.625,4.357,28.029   c0.698,0.891,1.393,0.975,1.802,0.924c4.861-0.216,7.258-16.647,7.247-29.845c-0.015-0.707,0.069-1.402,0.776-1.417   c0.707-0.015,0.957,0.418,0.972,1.125c-0.079,5.631-0.099,34.036-9.115,34.453c-0.199-0.024-0.509,0.039-0.707,0.015   c-0.893-0.108-2.049-0.551-3.107-1.787C221.219,96.502,222.457,72.175,222.689,71.095z M207.879,105.159   c-1.002,0.785-2.861-2.16-2.861-2.16l1.086,1.844c-2.045-3.069-4.605-7.71-3.443-15.628c1.027-7.632,2.904-9.822,3.139-10.096   c0.556-0.436,1.263-0.451,1.799,0.118c0.436,0.557,0.451,1.264-0.117,1.799c0,0-1.853,1.992-2.859,8.619   c-0.942,6.937,1.702,10.884,3.561,13.829C208.183,103.483,208.77,104.461,207.879,105.159z M213.201,98.653   c-0.099-0.012-0.198-0.024-0.298-0.036c-1.937-0.638-5.369-3.069-4.566-7.202c0.924-5.126,7.446-5.745,7.656-5.82   c0.719-0.114,1.254,0.454,1.381,1.074c0.126,0.62-0.454,1.255-1.062,1.282c-0.099-0.012-4.898,0.514-5.494,3.766   c-0.584,3.153,2.794,4.369,2.981,4.492c0.671,0.283,0.996,0.927,0.713,1.598C214.342,98.388,213.797,98.725,213.201,98.653z    M247.532,132.03c-1.017,0.078-2.022,0.057-2.915-0.051c-10.324-1.252-12.291-13.277-12.267-13.476   c-0.114-0.719,0.355-1.266,1.074-1.38s1.266,0.355,1.381,1.074c0.039,0.509,1.954,12.124,12.519,11.391   c7.924-0.55,9.146-12.288,9.17-12.486c0.084-0.695,0.653-1.23,1.348-1.146c0.695,0.084,1.23,0.653,1.146,1.348   C258.917,117.898,257.501,131.225,247.532,132.03z M280.163,93.882c-1.092,3.191-2.512,4.933-4.371,5.312   c-0.31,0.063-0.707,0.015-1.005-0.021c-1.787-0.217-3.107-1.787-3.282-2.01c-0.436-0.557-0.34-1.351,0.217-1.787   s1.351-0.34,1.787,0.217c0.349,0.445,1.257,1.261,1.877,1.134c0.409-0.051,2.082-0.553,3.063-3.658   c1.153-3.688,1.292-9.816-0.736-14.696c-0.226-0.631,0.268-1.377,0.987-1.492c0.62-0.126,1.378,0.268,1.492,0.987   C281.479,83.867,281.475,89.709,280.163,93.882z"></path>
	<g>
		<polygon style="fill:#ebaa17;" points="248.196,343.203 246.016,561.084 229.929,561.954 204.26,345.58   "></polygon>
	</g>
	<g>
		<polygon style="fill:#ebaa17;" points="299.472,345.58 273.404,561.932 258.115,561.106 255.537,343.203   "></polygon>
	</g>
	<g>
		<path style="fill:#161712;" d="M229.293,551.264l16.843,6.47c0,0,3.012,21.193,2.119,26.436h-4.35l-5.243-13.385    c0,0-11.712,7.808-21.193,11.266c-9.593,3.458-28.109,3.012-28.109,3.012L229.293,551.264z"></path>
	</g>
	<g>
		<path style="fill:#161712;" d="M274.743,551.264l-16.843,6.47c0,0-3.012,21.193-2.119,26.436h4.35l5.243-13.385    c0,0,11.712,7.808,21.193,11.266c9.593,3.458,28.109,3.012,28.109,3.012L274.743,551.264z"></path>
	</g>
	<g>
		<path style="fill:#161712;" d="M197.364,309.987l1.532,153.191c0,0,80.426,9.574,106.468-3.447l-2.298-147.064L197.364,309.987z"></path>
	</g>
	<g>
		<g>
			<g>
				<path style="fill:#2568EF;" d="M126.663,260.083c-16.131,0-33.629-1.673-52.437-5.022c-10.875-1.938-10.283-10.805-8.346-21.68      s4.492-19.636,15.36-17.701c51.254,9.129,80.531,2.269,96.066-5.093c12.202-5.782,17.012-12.501,17.043-12.562      c5.149-9.771,17.246-13.518,27.017-8.371c9.772,5.149,9.556,18.252,4.407,28.024c-1.563,2.967-6.648,17.353-31.336,29.054      C175.672,255.627,152.989,260.083,126.663,260.083z"></path>
			</g>
		</g>
	</g>
	<g>
		<g>
			<path style="fill:#2568EF;" d="M315.525,339.563c-5.837,0-11.622-2.542-15.574-7.438c-6.938-8.594-5.596-21.187,2.998-28.125     c40.017-32.309,47.236-51.089,45.192-57.093c-1.459-4.285-10.3-10.934-30.416-15.566c-17.168-3.953-33.698-4.376-33.863-4.38     c-11.034-0.255-19.787-9.398-19.546-20.433c0.239-10.893,9.132-19.563,19.975-19.563c0.141,0,0.281,0.001,0.422,0.004     c0.816,0.018,20.225,0.469,41.282,5.23c32.88,7.435,53.065,21.487,59.995,41.768c5.078,14.862,2.378,31.192-8.024,48.539     c-9.651,16.093-25.97,33.304-49.891,52.616C324.377,338.109,319.937,339.563,315.525,339.563z"></path>
		</g>
	</g>
	<g>
		<path style="fill:#ebaa17;" d="M237.776,162.456c0,0,4.913,2.407,10.599,2.196s8.779-2.099,8.779-2.099s0.99,20.74,0.914,22.244    s1.66,6.393-8.029,6.344c-9.689-0.049-10.042-4.239-10.904-7.692C238.406,180.014,237.776,162.456,237.776,162.456z"></path>
	</g>
	<g>
		<path style="fill:#161712;" d="M217.661,49.432c0,0,6.423-3.955,13.799,1.674c7.376,5.629,12.662-0.579,15.953-2.799    c3.291-2.22,8.379-5.128,17.319,0.892l3.395,46.749c0,0,6.388-13.63,15.983-4.71c9.596,8.92,11.937-2.078,15.851-6.942    s11.083-5.002,17.372,5.431c0,0-6.575-51.265-31.448-76.242c-24.873-24.977-43.89-8.547-47.109-3.599    c0,0-9.737-10.247-23.503-6.377s-25.129,13.673-37.397,40.894c-10.718,23.581-14.375,54.566-14.375,54.566    s11.667-14.803,20.087-5.32s11.963,5.178,19.193-2.104c7.13-7.294,16.031,4.866,16.031,4.866S213.911,68.72,217.661,49.432z"></path>
	</g>
	<g>
		<path style="fill:#161712;" d="M228.632,54.49c3.035-0.941,4.609,1.869,3.435,3.237c-1.074,1.381-9.248,4.821-11.405,5.164    c-2.157,0.343-3.156-1.39-1.362-2.885C221.18,58.622,226.018,55.281,228.632,54.49z"></path>
	</g>
	<g>
		<path style="fill:#161712;" d="M254.611,52.907c-3.201-0.187-3.983,2.942-2.603,4.016c1.381,1.074,10.168,2.543,12.301,2.399    c2.133-0.144,2.672-2.094,0.671-3.041C262.806,55.109,257.316,53.033,254.611,52.907z"></path>
	</g>
	<g>
		<g>
			<circle style="fill:#2568EF;" cx="208.394" cy="108.55" r="1.1"></circle>
		</g>
		<g>
			<path style="fill:#2568EF;" d="M202.114,167.203c-0.365,0-0.701-0.198-0.877-0.52l-12.18-22.236     c-0.164-0.299-0.164-0.66-0.001-0.959l10.282-18.877c0.166-0.304,0.477-0.501,0.823-0.52c0.343-0.021,0.677,0.141,0.875,0.425     l12.752,18.237c0.206,0.295,0.238,0.677,0.084,1.002l-10.854,22.876c-0.161,0.34-0.499,0.56-0.875,0.571     C202.133,167.203,202.124,167.203,202.114,167.203z M191.073,143.966l10.977,20.039l9.765-20.581l-11.493-16.438L191.073,143.966     z"></path>
		</g>
		<g>
			<line style="fill:#2568EF;" x1="207.043" y1="134.805" x2="195.995" y2="153.646"></line>
			
				<rect x="190.598" y="143.726" transform="matrix(0.506 -0.8625 0.8625 0.506 -24.8483 245.0658)" style="fill:#2568EF;" width="21.842" height="1"></rect>
		</g>
		<g>
			<line style="fill:#2568EF;" x1="208.082" y1="153.449" x2="194.32" y2="136.314"></line>
			
				<rect x="200.701" y="133.893" transform="matrix(0.7796 -0.6262 0.6262 0.7796 -46.392 157.9268)" style="fill:#2568EF;" width="1" height="21.977"></rect>
		</g>
		<g>
			<path style="fill:#2568EF;" d="M200.215,125.59c-0.265,0-0.486-0.208-0.499-0.476c-0.495-10.135,7.582-16.492,7.663-16.555     c0.218-0.17,0.532-0.13,0.701,0.09c0.169,0.219,0.128,0.532-0.09,0.701c-0.077,0.06-7.744,6.112-7.275,15.715     c0.013,0.275-0.199,0.511-0.475,0.523C200.232,125.59,200.224,125.59,200.215,125.59z"></path>
		</g>
	</g>
	<g>
		<g>
			<circle style="fill:#2568EF;" cx="279.235" cy="102.44" r="1.1"></circle>
		</g>
		<g>
			<path style="fill:#2568EF;" d="M285.516,161.093c-0.01,0-0.02,0-0.029,0c-0.376-0.012-0.713-0.231-0.875-0.571l-10.854-22.876     c-0.154-0.325-0.122-0.707,0.084-1.002l12.752-18.237c0.198-0.283,0.532-0.438,0.875-0.425c0.346,0.019,0.657,0.216,0.822,0.52     l10.283,18.877c0.163,0.299,0.163,0.66-0.001,0.959l-12.18,22.236C286.217,160.895,285.881,161.093,285.516,161.093z      M275.814,137.313l9.766,20.581l10.977-20.039l-9.249-16.979L275.814,137.313z"></path>
		</g>
		<g>
			<line style="fill:#2568EF;" x1="280.587" y1="128.694" x2="291.634" y2="147.536"></line>
			
				<rect x="285.61" y="127.194" transform="matrix(0.8626 -0.5058 0.5058 0.8626 -30.5614 163.6884)" style="fill:#2568EF;" width="1" height="21.842"></rect>
		</g>
		<g>
			<line style="fill:#2568EF;" x1="279.548" y1="147.338" x2="293.31" y2="130.204"></line>
			
				<rect x="275.44" y="138.271" transform="matrix(0.6268 -0.7792 0.7792 0.6268 -1.2387 274.9556)" style="fill:#2568EF;" width="21.977" height="1"></rect>
		</g>
		<g>
			<path style="fill:#2568EF;" d="M287.414,119.48c-0.008,0-0.017,0-0.025-0.001c-0.276-0.013-0.488-0.248-0.475-0.523     c0.469-9.603-7.198-15.655-7.275-15.715c-0.218-0.169-0.259-0.482-0.09-0.701s0.482-0.259,0.701-0.09     c0.082,0.063,8.158,6.42,7.663,16.555C287.9,119.271,287.679,119.48,287.414,119.48z"></path>
		</g>
	</g>
	<g>
		<path style="fill:#161712;" d="M89.747,235.306c0,11.034-6.344,19.978-14.17,19.978s-11.036-8.955-11.036-19.989    c0-11.034,3.21-19.968,11.036-19.968S89.747,224.273,89.747,235.306z"></path>
	</g>
	<g>
		<path style="fill:#ebaa17;" d="M5.94,187.221c0.003-0.001,0.006-0.002,0.008-0.003c0.001-0.003,0.001-0.006,0.002-0.009    C5.947,187.213,5.944,187.216,5.94,187.221z"></path>
	</g>
	<g>
		<path style="fill:#ebaa17;" d="M13.31,211.276l-0.147-5.754c-0.014-0.552,0.422-1.011,0.974-1.025    c0.55,0.006,1.011,0.421,1.025,0.975l0.155,6.048l11.552,1.4l0.469,0.05c0.048,0.005,0.093,0.016,0.141,0.022    c2.669,0.314,5.123-1.59,5.484-4.25c0.352-2.592-1.383-5.02-3.95-5.525l-24.524-4.834c-0.083-0.017-0.152-0.059-0.226-0.094    c-1.337,0.588-2.698,1.766-3.468,3.25c-1.039,4.157,0.358,6.861,1.792,8.439L13.31,211.276z"></path>
		<path style="fill:#ebaa17;" d="M12.483,197.919l0.056-5.14c0.006-0.552,0.455-0.969,1.011-0.989    c0.552,0.006,0.995,0.459,0.989,1.011l-0.06,5.511c0,0,0,0,0,0.001l14.874,2.932c1.95,0.23,3.854-0.327,5.368-1.574    c1.262-1.039,2.105-2.436,2.438-4.003c-3.823,2.254-7.408,2.865-10.659,1.773c-5.242-1.758-7.883-7.317-8.62-9.125l-3.917-0.573    c-0.547-0.08-0.925-0.588-0.845-1.134c0.08-0.548,0.594-0.931,1.134-0.845l4.251,0.622l11.025-4.057    c-0.175-0.072-0.348-0.138-0.524-0.211c-11.694-4.875-22.474,4.612-23.055,5.101c-3.023,2.54-1.154,6.92,0.368,9.486    L12.483,197.919z"></path>
		<path style="fill:#ebaa17;" d="M32.34,183.424l-8.242,3.033c1.81,0.286,3.747,0.906,4.746,2.23l6.688-2.944    c-0.376-0.846-1.146-2.096-2.442-2.556c-0.235,0.086-0.47,0.173-0.698,0.257C32.375,183.438,32.358,183.43,32.34,183.424z"></path>
		<path style="fill:#ebaa17;" d="M21.138,227.138l5.536-0.171c3.179-0.098,5.741-2.664,5.834-5.843    c0.09-3.076-2.2-5.743-5.237-6.143c-0.018-0.002-0.036-0.001-0.054-0.003l-0.66-0.08l-23.908-2.544    c-1.29,1.2-2.365,3.663-2.648,5.901c0.104,4.227,2.193,7.092,3.686,8.612l7.131,0.159l0.184-7.817    c0.013-0.552,0.458-0.963,1.023-0.977c0.552,0.014,0.989,0.472,0.976,1.023l-0.184,7.815    C12.816,227.07,20.989,227.143,21.138,227.138z"></path>
		<path style="fill:#ebaa17;" d="M82.072,223.767c-3.572-1.466-8.04-3.388-12.555-5.555c-3.839-1.842-6.5-5.489-7.074-9.708    l-0.009-0.064c-0.176-1.284-0.398-2.481-0.663-3.603c-1.436-9.843-7.456-24.526-13.372-25.367    c-2.826-0.401-8.171,1.191-12.922,2.858c1.25,1.1,1.998,2.639,2.284,3.688c0.13,0.478-0.109,0.979-0.562,1.178l-8.391,3.693    c-0.128,0.057-0.266,0.085-0.403,0.085c-0.139,0-0.279-0.029-0.409-0.087c-0.258-0.116-0.455-0.335-0.542-0.604    c-0.585-1.799-5.163-2.154-7.292-2.04c-0.016,0.001-0.031-0.007-0.047-0.007c-0.02,0.02-0.034,0.043-0.055,0.061    c0.946,2.013,3.234,5.965,7.084,7.252c2.976,0.992,6.385,0.219,10.133-2.305l5.387-3.553c0.303-0.199,0.691-0.221,1.013-0.052    c0.322,0.168,0.528,0.497,0.537,0.86l0.257,9.806c0.007,0.275-0.1,0.542-0.295,0.736c-0.078,0.077-7.78,7.866-5.638,16.665    c1.856,7.622,10.331,13.858,25.188,18.535c0.527,0.166,0.819,0.728,0.653,1.255c-0.134,0.427-0.528,0.699-0.953,0.699    c-0.1,0-0.201-0.015-0.301-0.046c-6.517-2.052-11.854-4.426-16.025-7.101c-0.037,0.011-0.066,0.035-0.105,0.042    c-1.781,0.332-3.064,1.218-3.923,2.706c-1.61,2.792-1.147,6.731-0.919,7.867c0.118,0.158,0.19,0.353,0.196,0.566    c0.023,0.843-0.604,1.116-0.938,1.143c-0.038,0.003-0.074,0.004-0.109,0.005c-0.961,0-1.105-1.083-1.244-2.132    c-0.614-4.622,0.443-9.833,4.94-11.638c-4.558-3.378-7.377-7.199-8.406-11.443c-2.169-8.944,4.332-16.575,5.869-18.226    l-0.199-7.588l-3.064,2.021c0.066,0.14,0.109,0.29,0.098,0.451c-0.182,2.518-1.355,4.788-3.304,6.392    c-0.98,0.807-2.09,1.382-3.267,1.722c1.637,1.493,2.536,3.734,2.218,6.075c-0.326,2.4-1.867,4.359-3.92,5.338    c2.173,1.505,3.566,4.042,3.484,6.833c-0.088,3.031-1.867,5.637-4.422,6.926c0.531,0.295,1.019,0.675,1.442,1.139    c1.056,1.158,1.579,2.657,1.47,4.221c-0.205,2.965-2.694,5.286-5.666,5.286c-0.002,0-0.003,0-0.005,0l-7.883-0.131    c0.626,1.719,0.745,4.01-1.324,5.616c-0.182,0.142-0.398,0.21-0.612,0.21c-0.298,0-0.593-0.133-0.791-0.387    c-0.338-0.437-0.259-1.064,0.177-1.403c1.592-1.235,0.806-3.205,0.344-4.072l-4.983-0.083c-0.552-0.01-0.993-0.465-0.983-1.017    c0.009-0.553,0.468-0.991,1.017-0.983l15.056,0.251c0.001,0,0.002,0,0.003,0c1.91,0,3.521-1.504,3.655-3.425    c0.07-1.013-0.268-1.984-0.952-2.734c-0.685-0.75-1.621-1.176-2.636-1.198l-22.604-0.504c-2.486,5.257,0.966,7.895,2.92,10.414    c3.384,3.699,7.428,6.476,11.854,8.227c10.759,5.306,32.591,12.545,61.663,2.391c4.083-1.426,7.404-4.468,8.042-9.702    c0,0,0.511-3.191,0.511-4.787C89.798,230.605,86.539,225.601,82.072,223.767z"></path>
	</g>
	<g>
		<path style="fill:#2568EF;" d="M309.194,188.966l-39.721-4.652l-20.332,72.37l-2.274,57.22l18.178,52.679h58.607l-16.34-68.423    c-1.039-4.351-1.489-8.821-1.339-13.292L309.194,188.966z"></path>
		<path style="fill:#2568EF;" d="M225.785,365.826l17.081-51.984l2.274-57.239l-20.118-72.558    c-22.158,0.913-26.892,11.048-26.892,11.048l-2.168,83.846c-0.086,3.329-0.504,6.64-1.249,9.885l-17.736,77.33L225.785,365.826z"></path>
	</g>
	<g>
		<polygon style="fill:#ebaa17;" points="247.164,248.931 265.359,184.169 229.534,183.987 229.189,184.103   "></polygon>
	</g>
	<polygon style="fill:#161712;" points="247.164,248.931 261.012,199.641 233.221,198.645  "></polygon>
	<g>
		<ellipse style="fill:#161712;" cx="262.47" cy="266.711" rx="5.745" ry="7.277"></ellipse>
	</g>
	<g>
		<ellipse style="fill:#161712;" cx="262.47" cy="290.455" rx="5.745" ry="7.277"></ellipse>
	</g>
	<g>
		
			<ellipse transform="matrix(0.9758 -0.2185 0.2185 0.9758 -60.1252 70.2142)" style="fill:#ebaa17;" cx="287.364" cy="306.923" rx="22.596" ry="5.745"></ellipse>
	</g>
	<g>
		<path style="fill:#ebaa17;" d="M312.701,311.23c0.605,2.702-12.44,7.255-23.23,9.672c-10.791,2.416-15.24,1.781-15.846-0.921    c-0.605-2.702,7.652-6.852,18.442-9.268C302.858,308.296,312.096,308.528,312.701,311.23z"></path>
	</g>
	<g>
		<path style="fill:#ebaa17;" d="M314.233,319.273c0.605,2.702-11.753,6.829-20.741,8.842c-8.988,2.013-11.203,1.15-11.809-1.553    c-0.605-2.702,6.191-6.525,15.179-8.538S313.628,316.57,314.233,319.273z"></path>
	</g>
	<g>
		<path style="fill:#ebaa17;" d="M316.332,324.474c0.907,2.617-4.529,6.878-12.143,9.518c-7.614,2.64-14.521,2.66-15.429,0.043    s4.905-4.94,12.518-7.581C308.893,323.815,315.425,321.858,316.332,324.474z"></path>
	</g>
	<g>
		<path style="fill:#ebaa17;" d="M304.853,300.221c0.574,0.383,19.947-0.383,16.404,23.17c-3.318,22.06-24.319-14.17-24.319-14.17    L304.853,300.221z"></path>
	</g>
	<g>
		<path style="fill:#ebaa17;" d="M309.194,326.455l6.128,7.468c0,0,11.681-3.83,5.17-21.064    C313.196,293.546,309.194,326.455,309.194,326.455z"></path>
	</g>
	<g>
		<path style="fill:#2568EF;" d="M272.172,317.37c-0.425,0-0.82-0.273-0.954-0.701c-0.165-0.527,0.128-1.088,0.655-1.253    l26.49-8.298c0.526-0.165,1.088,0.128,1.253,0.655s-0.128,1.088-0.655,1.253l-26.49,8.298    C272.372,317.355,272.271,317.37,272.172,317.37z"></path>
	</g>
	<g>
		<path style="fill:#2568EF;" d="M281.811,324.583c-0.415,0-0.803-0.26-0.945-0.674c-0.18-0.522,0.097-1.092,0.619-1.271    l22.212-7.66c0.523-0.181,1.092,0.098,1.271,0.619c0.18,0.522-0.097,1.092-0.619,1.271l-22.212,7.66    C282.029,324.565,281.919,324.583,281.811,324.583z"></path>
	</g>
	<g>
		<path style="fill:#2568EF;" d="M288.832,330.966c-0.414,0-0.801-0.259-0.944-0.672c-0.182-0.521,0.094-1.091,0.616-1.272    l20.553-7.149c0.524-0.186,1.091,0.095,1.273,0.616s-0.094,1.091-0.616,1.272l-20.553,7.149    C289.052,330.948,288.941,330.966,288.832,330.966z"></path>
	</g>
	<g>
		<path style="fill:#ebaa17;" d="M305.747,291.7l2.394,11.777l11.585,5.553C319.726,309.03,312.449,294.859,305.747,291.7z"></path>
	</g>
	<g>
		<path style="fill:#2568EF;" d="M311.588,303.519c-0.36,0-0.708-0.195-0.886-0.534c-0.063-0.106-2.404-3.822-13.733-3.486    c-0.559-0.021-1.014-0.418-1.03-0.97c-0.017-0.552,0.417-1.013,0.969-1.03c12.717-0.358,15.32,4.063,15.574,4.573    c0.247,0.494,0.047,1.095-0.447,1.342C311.891,303.484,311.738,303.519,311.588,303.519z"></path>
	</g>
</g>

            </g>
        </g>
    </g>
    
    <!-- ITEM 4 -->
    <g>
        <defs>
            <clipPath id="clip-path-id-viewbox-item-4">
                <rect x="0.0" y="0.0" width="112.039" height="102.449"/>
            </clipPath>
        </defs>
        <g transform="translate(550.0 478.0) rotate(0.0 40.5 37.0) scale(0.7229625398298807 0.7223106130855352)">
            <g clip-path="url(#clip-path-id-viewbox-item-4)" transform="translate(-0.0 -0.0)">
                <title>Star_Beige</title><polygon id="e31099bb-6aae-459a-91aa-3838c661596d-i4" data-name="Star_Beige" points="2.92 39.475 45.034 39.3 55.317 1.363 65.645 39.289 107.756 39.419 75.024 61.888 87.767 101.05 55.356 77.011 22.975 101.085 35.676 61.906 2.92 39.475" fill="#ffdb52"></polygon>
            </g>
        </g>
    </g>
    
    <!-- ITEM 5 -->
    <g>
        <defs>
            <clipPath id="clip-path-id-viewbox-item-5">
                <rect x="0.0" y="0.0" width="112.039" height="102.449"/>
            </clipPath>
        </defs>
        <g transform="translate(630.0 478.0) rotate(0.0 39.5 36.0) scale(0.7051116129205008 0.7027887046237641)">
            <g clip-path="url(#clip-path-id-viewbox-item-5)" transform="translate(-0.0 -0.0)">
                <title>Star_Beige</title><polygon id="e31099bb-6aae-459a-91aa-3838c661596d-i5" data-name="Star_Beige" points="2.92 39.475 45.034 39.3 55.317 1.363 65.645 39.289 107.756 39.419 75.024 61.888 87.767 101.05 55.356 77.011 22.975 101.085 35.676 61.906 2.92 39.475" fill="#324a58"></polygon>
            </g>
        </g>
    </g>
    
    <!-- ITEM 6 -->
    <g>
        <defs>
            <clipPath id="clip-path-id-viewbox-item-6">
                <rect x="0.0" y="0.0" width="112.039" height="102.449"/>
            </clipPath>
        </defs>
        <g transform="translate(384.0 477.0) rotate(0.0 41.0 37.5) scale(0.7318880032845705 0.7320715673164209)">
            <g clip-path="url(#clip-path-id-viewbox-item-6)" transform="translate(-0.0 -0.0)">
                <title>Star_Beige</title><polygon id="e31099bb-6aae-459a-91aa-3838c661596d-i6" data-name="Star_Beige" points="2.92 39.475 45.034 39.3 55.317 1.363 65.645 39.289 107.756 39.419 75.024 61.888 87.767 101.05 55.356 77.011 22.975 101.085 35.676 61.906 2.92 39.475" fill="#ffdb52"></polygon>
            </g>
        </g>
    </g>
    
    <!-- ITEM 7 -->
    <g>
        <defs>
            <clipPath id="clip-path-id-viewbox-item-7">
                <rect x="0.0" y="0.0" width="280.895" height="276.85"/>
            </clipPath>
        </defs>
        <g transform="translate(937.0 701.0) rotate(0.0 -224.5 221.5) scale(-1.5984620587764111 1.6001444825717897)">
            <g clip-path="url(#clip-path-id-viewbox-item-7)" transform="translate(-0.0 -0.0)">
                
<g>
	<g>
		<path style="fill:#2db548;" d="M116.846,177.981c-1.149,0-2.185-0.797-2.44-1.966c-0.375-1.714-8.933-42.199,13.177-61.895    c14.18-12.631,37.464-13.507,69.204-2.605c1.936,0.665,3.792,1.477,5.746,2.339c5.048-3.062,25.043-13.925,45.243-7.398    c14.465,4.674,25.555,17.168,32.963,37.135c0.253,0.681,0.197,1.437-0.152,2.073s-0.958,1.089-1.668,1.241    c-0.675,0.144-16.72,3.513-34.426,1.75c-23.531-2.345-38.659-12.765-43.836-30.164c-1.907-0.842-3.711-1.635-5.495-2.248    c-29.906-10.271-51.524-9.729-64.253,1.61c-19.949,17.771-11.704,56.701-11.618,57.092c0.295,1.349-0.559,2.682-1.908,2.977    C117.203,177.962,117.023,177.981,116.846,177.981z M205.679,117.811c10.269,31.956,57.098,26.68,69.288,24.723    c-6.806-16.825-16.461-27.356-28.73-31.32C228.863,105.598,210.953,114.746,205.679,117.811z"></path>
	</g>
	<g>
		<path style="fill:#2db548;" d="M197.45,164.865l-3.329-0.25c-18.366-1.38-29.614-6.082-33.431-13.974    c-2.491-5.15-1.132-10.208,0.132-13.126c-6.057-2.661-12.083-3.086-17.941-1.263c-15.038,4.678-24.499,22.542-24.593,22.723    c-0.639,1.224-2.147,1.699-3.371,1.063c-1.225-0.637-1.701-2.145-1.065-3.369c0.42-0.809,10.484-19.868,27.52-25.183    c7.409-2.311,14.974-1.662,22.509,1.93c4.708-3.728,9.353-4.876,13.834-3.412c12.849,4.205,18.444,28.806,19.04,31.597    L197.45,164.865z M166.157,138.02c-0.645,1.099-3.177,5.921-0.948,10.48c1.947,3.981,8.053,8.968,25.836,10.821    c-2.223-8.143-7.462-22.14-14.889-24.567C173.109,133.758,169.836,134.827,166.157,138.02z"></path>
	</g>
	<g>
		<path style="fill:#2db548;" d="M115.499,168.97c-1.36,0-2.475-1.09-2.499-2.456c-0.58-32.671-35.238-42.68-36.713-43.09    c-1.329-0.37-2.109-1.747-1.741-3.076c0.369-1.329,1.739-2.107,3.073-1.743c0.397,0.11,39.732,11.382,40.381,47.821    c0.024,1.38-1.075,2.52-2.456,2.544C115.529,168.97,115.513,168.97,115.499,168.97z"></path>
	</g>
	<g>
		<path style="fill:#2db548;" d="M115.504,168.969c-0.126,0-0.253-0.009-0.381-0.029c-1.364-0.208-2.302-1.483-2.095-2.848    c0.032-0.208,3.068-20.993-5.733-33.148c-10.63-14.679-3.683-42.953-3.382-44.149c0.337-1.338,1.692-2.15,3.033-1.814    c1.339,0.336,2.152,1.694,1.816,3.033c-0.068,0.271-6.679,27.209,2.581,39.998c10.016,13.831,6.771,35.904,6.627,36.837    C117.781,168.085,116.717,168.969,115.504,168.969z"></path>
	</g>
	<g>
		<polygon style="fill:#161712;" points="159.196,188.793 76.324,188.793 73.324,166.47 163.196,166.47   "></polygon>
	</g>
	<g>
		<g>
			<path style="fill:#161712;" d="M104.421,197.773c0.249-0.616,0.887-0.982,1.543-0.89c0.658,0.093,1.167,0.623,1.235,1.284     c0.533,5.183,2.67,13.654,6.137,14.321c1.721,0.33,5.61-1.047,12.384-13.978c0.246-0.47,0.731-0.767,1.262-0.774     c0.506-0.023,1.023,0.278,1.281,0.741c0.081,0.146,8.235,14.536,17.653,14.231c1.228-0.041,2.434-0.344,3.619-0.886l2.809-15.629     H83.487l3.806,18.989c0.799,0.376,1.615,0.603,2.446,0.633C94.508,216.008,99.586,209.751,104.421,197.773z"></path>
		</g>
		<g>
			<path style="fill:#161712;" d="M145.61,215.603c-8.594,0.001-15.67-9.199-18.526-13.533     c-5.402,9.725-10.087,14.066-14.296,13.256c-4.41-0.85-6.615-7.229-7.652-11.928c-4.79,10.287-9.781,15.312-15.183,15.312     c-0.107,0-0.214-0.002-0.321-0.006c-0.573-0.021-1.132-0.112-1.682-0.246l9.796,46.484c1.462,6.94,7.585,11.907,14.678,11.907     h12.449c7.213,0,13.405-5.134,14.741-12.222l9.33-49.513c-0.962,0.279-1.94,0.45-2.936,0.482     C145.874,215.601,145.741,215.603,145.61,215.603z"></path>
		</g>
	</g>
	<g>
		<path style="fill:#2db548;" d="M105.226,97.377c-0.149,0-0.301-0.014-0.453-0.042c-1.292-0.237-2.181-1.434-2.033-2.739    c1.126-9.967-9.258-14.142-19.079-17.273c-0.761-0.243-1.467-0.468-2.101-0.681c-10.031-3.372-16.512-9.375-19.26-17.845    C54.797,35.676,78.189,2.452,79.188,1.049c0.661-0.928,1.864-1.29,2.93-0.884c1.064,0.407,1.718,1.482,1.591,2.615    c-1.693,15.031,4.783,20.442,9.986,24.79c25.524,21.324,14.436,66.035,13.951,67.928    C107.359,96.619,106.348,97.377,105.226,97.377z M78.633,11.269c-6.32,10.796-16.349,31.293-11.574,45.992    c2.265,6.974,7.53,11.764,16.096,14.643c0.61,0.205,1.292,0.422,2.025,0.656c5.696,1.816,14.697,4.686,19.457,10.908    c1.649-14.161,1.768-38.767-14.146-52.062C86.065,27.71,79.813,22.486,78.633,11.269z"></path>
	</g>
	<g>
		<path style="fill:#2db548;" d="M105.336,89.802c-0.899,0-1.717-0.611-1.94-1.524c-2.998-12.213-5.752-15.445-11.239-21.885    c-2.661-3.123-5.973-7.009-10.183-12.922c-13.365-18.771-5.54-43.845-5.2-44.903c0.338-1.051,1.461-1.633,2.514-1.292    c1.052,0.336,1.631,1.462,1.295,2.514c-0.076,0.24-7.538,24.245,4.649,41.362c4.109,5.771,7.358,9.584,9.97,12.648    c5.71,6.701,8.855,10.393,12.079,23.526c0.264,1.073-0.393,2.156-1.466,2.419C105.654,89.783,105.494,89.802,105.336,89.802z"></path>
	</g>
	<g>
		<path style="fill:#2db548;" d="M65.293,128.401c-11.478,0-25.881-1.928-35.453-10.088c-7.07-6.027-10.499-14.567-10.189-25.383    c0.164-5.724-2.712-12.785-17.344-13.917c-1.224-0.095-2.197-1.064-2.298-2.288c-0.101-1.224,0.701-2.339,1.894-2.633    c1.913-0.471,47.038-11.285,59.463,11.367c2.048,3.73,2.595,7.468,3.125,11.082c1.142,7.79,2.321,15.844,19.736,25.688    c0.913,0.516,1.407,1.548,1.236,2.583s-0.97,1.854-2.001,2.049C82.791,126.989,75.113,128.401,65.293,128.401z M14.72,76.947    c9.033,4.36,10.039,12.228,9.928,16.126c-0.264,9.224,2.571,16.434,8.428,21.429c11.514,9.824,32.042,9.37,42.666,8.341    c-13.847-9.515-15.088-17.994-16.199-25.577c-0.487-3.322-0.947-6.46-2.561-9.402C49.892,74.941,28.325,75.283,14.72,76.947z"></path>
	</g>
	<g>
		<path style="fill:#2db548;" d="M79.88,126.89c-0.166,0-0.336-0.021-0.505-0.065c-1.333-0.347-32.748-8.737-42.182-29.541    C26.141,72.919,3.934,78.22,2.994,78.458c-1.06,0.269-2.156-0.375-2.43-1.444c-0.272-1.069,0.369-2.156,1.438-2.431    c0.259-0.068,26.37-6.43,38.834,21.049c8.643,19.058,39.239,27.242,39.548,27.322c1.068,0.279,1.709,1.371,1.43,2.439    C81.579,126.294,80.768,126.89,79.88,126.89z"></path>
	</g>
	<g>
		<path style="fill:#2db548;" d="M276.302,145.895c-0.542,0-1.081-0.218-1.476-0.648c-25.208-27.499-70.618-26.198-71.074-26.183    c-1.079,0.053-2.03-0.823-2.07-1.926s0.821-2.031,1.925-2.071c1.931-0.072,47.698-1.399,74.169,27.477    c0.746,0.814,0.691,2.08-0.123,2.826C277.269,145.722,276.785,145.895,276.302,145.895z"></path>
	</g>
	<g>
		<path style="fill:#2db548;" d="M192.077,162.876c-0.636,0-1.261-0.302-1.649-0.866c-11.882-17.253-25.665-23.351-25.804-23.41    c-1.013-0.438-1.48-1.613-1.045-2.627c0.438-1.013,1.61-1.481,2.624-1.048c0.604,0.259,14.939,6.551,27.52,24.817    c0.626,0.91,0.396,2.155-0.513,2.781C192.863,162.762,192.467,162.876,192.077,162.876z"></path>
	</g>
</g>

            </g>
        </g>
    </g>
    
    <!-- ITEM 8 -->
    <g>
        <defs>
            <clipPath id="clip-path-id-viewbox-item-8">
                <rect x="0.0" y="0.0" width="80.787" height="78.049"/>
            </clipPath>
        </defs>
        <g transform="translate(812.0 201.0) rotate(0.0 47.0 45.0) scale(1.1635535420302772 1.1531217568450587)">
            <g clip-path="url(#clip-path-id-viewbox-item-8)" transform="translate(-0.0 -0.0)">
                
<g id="Star-i8">
	<path style="fill:#FF9B19;" d="M38.34,34.232c-2.328,0-4.108-1.78-4.108-4.108c0,0,1.78-30.124,4.108-30.124   c2.328,0,4.108,30.124,4.108,30.124C42.448,32.452,40.667,34.232,38.34,34.232z"></path>
	<path style="fill:#FF9B19;" d="M47.925,43.817c-2.328,0-4.108-1.78-4.108-4.108c0-2.328,1.78-4.108,4.108-4.108   c0,0,32.863,1.78,32.863,4.108C80.787,42.037,47.925,43.817,47.925,43.817z"></path>
	<path style="fill:#FF9B19;" d="M38.34,78.049c-2.328,0-4.108-27.386-4.108-27.386c0-2.328,1.78-4.108,4.108-4.108   c2.328,0,4.108,1.78,4.108,4.108C42.448,50.663,40.667,78.049,38.34,78.049z"></path>
	<path style="fill:#FF9B19;" d="M30.124,43.817c0,0-30.124-1.78-30.124-4.108c0-2.328,30.124-4.108,30.124-4.108   c2.328,0,4.108,1.78,4.108,4.108C34.232,42.037,32.452,43.817,30.124,43.817z"></path>
</g>

            </g>
        </g>
    </g>
    
    <!-- ITEM 9 -->
    <g>
        <defs>
            <clipPath id="clip-path-id-viewbox-item-9">
                <rect x="0.0" y="0.0" width="80.787" height="78.049"/>
            </clipPath>
        </defs>
        <g transform="translate(887.0 121.0) rotate(0.0 34.5 33.0) scale(0.8540978127669056 0.8456226216863765)">
            <g clip-path="url(#clip-path-id-viewbox-item-9)" transform="translate(-0.0 -0.0)">
                
<g id="Star-i9">
	<path style="fill:#FF9B19;" d="M38.34,34.232c-2.328,0-4.108-1.78-4.108-4.108c0,0,1.78-30.124,4.108-30.124   c2.328,0,4.108,30.124,4.108,30.124C42.448,32.452,40.667,34.232,38.34,34.232z"></path>
	<path style="fill:#FF9B19;" d="M47.925,43.817c-2.328,0-4.108-1.78-4.108-4.108c0-2.328,1.78-4.108,4.108-4.108   c0,0,32.863,1.78,32.863,4.108C80.787,42.037,47.925,43.817,47.925,43.817z"></path>
	<path style="fill:#FF9B19;" d="M38.34,78.049c-2.328,0-4.108-27.386-4.108-27.386c0-2.328,1.78-4.108,4.108-4.108   c2.328,0,4.108,1.78,4.108,4.108C42.448,50.663,40.667,78.049,38.34,78.049z"></path>
	<path style="fill:#FF9B19;" d="M30.124,43.817c0,0-30.124-1.78-30.124-4.108c0-2.328,30.124-4.108,30.124-4.108   c2.328,0,4.108,1.78,4.108,4.108C34.232,42.037,32.452,43.817,30.124,43.817z"></path>
</g>

            </g>
        </g>
    </g>
    
    <!-- ITEM 10 -->
    <g>
        <defs>
            <clipPath id="clip-path-id-viewbox-item-10">
                <rect x="0.0" y="0.0" width="59.783" height="177.274"/>
            </clipPath>
        </defs>
        <g transform="translate(1259.0 205.0) rotate(0.0 23.5 69.5) scale(0.7861766722981449 0.784096934688674)">
            <g clip-path="url(#clip-path-id-viewbox-item-10)" transform="translate(-0.0 -0.0)">
                
<g id="Decorative_Objects_3-i10">
	<path style="fill:#FC9C1C;" d="M3.982,17.953c0,0-6.1,3.3-3.2,9.8s8.8,4.8,11.6,3.6c8.7-3.5,33.8-16.7,33.8-16.7s5.8-3.6,2.9-10.6   c-2.9-6.9-12.3-2.9-12.3-2.9L3.982,17.953z"></path>
	<path style="fill:#FC9C1C;" d="M15.882,82.753c0,0-6.9-0.3-7.6,6.7c-0.6,6.9,5.2,8.4,8.2,8.8c9.3,1.3,35.7,2.6,35.7,2.6   s7.7,0.2,7.6-7.4c-0.1-9-9.2-8.5-9.2-8.5L15.882,82.753z"></path>
	<path style="fill:#FC9C1C;" d="M14.982,171.853c0,0-5.5-1.5-2.5-9.4c3-8,10.9-4.8,10.9-4.8s14.1,3.6,12,13.1   C32.082,184.753,14.982,171.853,14.982,171.853z"></path>
</g>

            </g>
        </g>
    </g>
    
    <!-- ITEM 11 -->
    <g>
        <defs>
            <clipPath id="clip-path-id-crop-item-11">
                
          <g transform="scale(0.382 0.9894469273743016)">
          <rect x="0.0" y="0.0" width="33.0" height="881.0" />
          </g>
        
            </clipPath>
            
            <clipPath id="clip-path-id-viewbox-item-11">
                <rect x="0.0" y="0.0" width="19.1" height="354.222"/>
            </clipPath>
        </defs>
        <g clip-path="url(#clip-path-id-crop-item-11)" transform="translate(480.0 130.0) rotate(270.0 25.0 179.0) scale(2.6178010471204187 1.0106656277701556)">
            <g clip-path="url(#clip-path-id-viewbox-item-11)" transform="translate(-0.0 -0.0)">
                
<g>
	<g>
		<g>
			<path style="fill:#324a58;" d="M17.1,313.189c-1.1,0-2-1.675-2-3.559V5.443c0-2.094,0.9-3.559,2-3.559s2,1.675,2,3.559V309.63     C19.1,311.515,18.2,313.189,17.1,313.189z"></path>
		</g>
	</g>
	<g>
		<g>
			<path style="fill:#324a58;" d="M3,354.222c-1.7,0-3-2.512-3-5.443V5.443C0,2.512,1.3,0,3,0s3,2.512,3,5.443v343.336     C6,351.71,4.6,354.222,3,354.222z"></path>
		</g>
	</g>
</g>
<g>
</g>

            </g>
        </g>
    </g>
    
    <!-- ITEM 12 -->
    <g>
        <defs>
            <clipPath id="clip-path-id-crop-item-12">
                
          <g transform="scale(0.37450980392156863 0.9731373626373626)">
          <rect x="0.0" y="0.0" width="34.0" height="896.0" />
          </g>
        
            </clipPath>
            
            <clipPath id="clip-path-id-viewbox-item-12">
                <rect x="0.0" y="0.0" width="19.1" height="354.222"/>
            </clipPath>
        </defs>
        <g clip-path="url(#clip-path-id-crop-item-12)" transform="translate(478.0 81.0) rotate(270.0 25.5 182.0) scale(2.670157068062827 1.0276041578445156)">
            <g clip-path="url(#clip-path-id-viewbox-item-12)" transform="translate(-0.0 -0.0)">
                
<g>
	<g>
		<g>
			<path style="fill:#324a58;" d="M17.1,313.189c-1.1,0-2-1.675-2-3.559V5.443c0-2.094,0.9-3.559,2-3.559s2,1.675,2,3.559V309.63     C19.1,311.515,18.2,313.189,17.1,313.189z"></path>
		</g>
	</g>
	<g>
		<g>
			<path style="fill:#324a58;" d="M3,354.222c-1.7,0-3-2.512-3-5.443V5.443C0,2.512,1.3,0,3,0s3,2.512,3,5.443v343.336     C6,351.71,4.6,354.222,3,354.222z"></path>
		</g>
	</g>
</g>
<g>
</g>

            </g>
        </g>
    </g>
    
    <!-- ITEM 13 -->
    <g>
        <defs>
            <clipPath id="clip-path-id-crop-item-13">
                
          <g transform="scale(0.382 0.98395)">
          <rect x="0.0" y="-527.0" width="27.0" height="887.0" />
          </g>
        
            </clipPath>
            
            <clipPath id="clip-path-id-viewbox-item-13">
                <rect x="0.0" y="0.0" width="19.1" height="354.222"/>
            </clipPath>
        </defs>
        <g clip-path="url(#clip-path-id-crop-item-13)" transform="translate(478.0 569.0) rotate(90.0 25.0 -180.0) scale(2.6178010471204187 -1.0163118044616088)">
            <g clip-path="url(#clip-path-id-viewbox-item-13)" transform="translate(-0.0 -0.0)">
                
<g>
	<g>
		<g>
			<path style="fill:#324a58;" d="M17.1,313.189c-1.1,0-2-1.675-2-3.559V5.443c0-2.094,0.9-3.559,2-3.559s2,1.675,2,3.559V309.63     C19.1,311.515,18.2,313.189,17.1,313.189z"></path>
		</g>
	</g>
	<g>
		<g>
			<path style="fill:#324a58;" d="M3,354.222c-1.7,0-3-2.512-3-5.443V5.443C0,2.512,1.3,0,3,0s3,2.512,3,5.443v343.336     C6,351.71,4.6,354.222,3,354.222z"></path>
		</g>
	</g>
</g>
<g>
</g>

            </g>
        </g>
    </g>
    
</svg>